<?xml version="1.0" encoding="UTF-8" standalone="no"?>
<!-- Generator: Adobe Illustrator 16.0.4, SVG Export Plug-In . SVG Version: 6.00 Build 0)  -->
<svg id="Layer_1" xmlns:rdf="http://www.w3.org/1999/02/22-rdf-syntax-ns#" xmlns="http://www.w3.org/2000/svg" enable-background="new 0 0 612 792" xml:space="preserve" height="680.0909" viewBox="0 0 566.87573 680.09088" width="566.8757" version="1.1" y="0px" x="0px" xmlns:cc="http://creativecommons.org/ns#" xmlns:dc="http://purl.org/dc/elements/1.1/"><metadata id="metadata49"><rdf:RDF><cc:Work rdf:about=""><dc:format>image/svg+xml</dc:format><dc:type rdf:resource="http://purl.org/dc/dcmitype/StillImage"/><dc:title/></cc:Work></rdf:RDF></metadata><g id="g3" transform="translate(-18.822 2.708864)"><path id="path5" fill="#0e9a48" d="m236.824 493.146v-65.203c2.34-0.895 4.623-1.963 6.815-3.257 31.087-18.327 34.355-70.395 7.293-116.288-27.059-45.895-74.196-68.24-105.282-49.912-31.087 18.329-34.354 70.394-7.297 116.288 4.366 7.403 9.258 14.182 14.517 20.287v48.439l-67.002-38.344v-240.154l-23.485-15.503c-21.394 38.979-33.561 83.741-33.561 131.343 0 147.904 117.359 268.317 264.08 273.177l0.025-28.178-56.103-32.695z"/><path id="path7" fill="#cb2026" d="m159.006 111.537 40.952 24.27c-0.807 6.729-0.833 14.137-0.807 16.684 0.375 36.085 49.245 63.517 102.52 62.965s91.219-32.827 90.95-64.58c-0.304-36.084-35.004-64.336-88.259-65.924-18.029-0.538-35.408 3.062-43.322 4.574l-29.868-19.106 71.037-40.531 209.412 121.725 24.017-13.183c-23.105-37.99-55.827-70.867-97.081-94.619-128.178-73.797-291.089-32.17-368.505 92.558l23.821 15.042 65.133-39.875z"/><path id="path9" fill="#35469d" d="m518.687 243.843-44.532 23.277c-1.614-0.27-11.499-9.522-13.723-10.764-31.526-17.563-77.938 5.659-103.867 52.201-25.93 46.54-23.719 99.753 7.805 117.32 31.527 17.562 78.47-3.509 104.403-50.049 4.182-7.508 9.767-24.938 12.378-32.559l37.938-21.932-0.225 83.273-208.851 121.97 0.101 27.481c44.448-1.233 89.223-13.354 130.301-37.406 127.63-74.736 172.237-236.855 102.294-365.921l-24.022 13.191v79.918z"/></g><path id="path11" fill="none" d="m366.263 546.4839" stroke="#010101"/><g fill="#010101"><path id="path15" d="m52.172 581.5569h53.562v16.25h-33.671v20.021h31.461v16.12h-31.461v35.231h-19.891v-87.622z"/><path id="path17" d="m132.384 646.6879-6.24 22.491h-20.541l26.781-87.623h26.001l27.171 87.623h-21.321l-6.76-22.491h-25.091zm22.231-14.82-5.46-18.591c-1.56-5.2-3.12-11.7-4.42-16.9h-0.26c-1.3 5.2-2.6 11.83-4.03 16.9l-5.2 18.591h19.37z"/><path id="path19" d="m197.251 582.7269c5.2-1.04 15.731-1.82 25.611-1.82 12.09 0 19.5 1.17 25.871 4.94 6.11 3.25 10.53 9.23 10.53 17.16 0 7.801-4.55 15.081-14.431 18.721v0.261c10.01 2.729 17.421 10.27 17.421 21.58 0 7.931-3.641 14.171-9.101 18.591-6.37 5.07-17.031 7.931-34.451 7.931-9.75 0-17.031-0.65-21.451-1.3v-86.064zm19.631 33.541h6.5c10.4 0 15.991-4.29 15.991-10.79 0-6.631-5.07-10.141-14.041-10.141-4.29 0-6.76 0.26-8.45 0.521v20.41zm0 38.871c1.95 0.261 4.29 0.261 7.67 0.261 8.97 0 16.901-3.38 16.901-12.61 0-8.841-7.931-12.351-17.811-12.351h-6.76v24.7z"/><path id="path21" d="m302.03 581.5569h19.891v70.982h34.842v16.641h-54.732v-87.623z"/><path id="path23" d="m389.649 646.6879-6.24 22.491h-20.541l26.781-87.623h26l27.172 87.623h-21.321l-6.761-22.491h-25.09zm22.23-14.82-5.461-18.591c-1.56-5.2-3.119-11.7-4.42-16.9h-0.26c-1.3 5.2-2.6 11.83-4.03 16.9l-5.2 18.591h19.371z"/><path id="path25" d="m454.516 582.7269c5.2-1.04 15.73-1.82 25.611-1.82 12.09 0 19.501 1.17 25.871 4.94 6.11 3.25 10.53 9.23 10.53 17.16 0 7.801-4.55 15.081-14.431 18.721v0.261c10.011 2.729 17.421 10.27 17.421 21.58 0 7.931-3.641 14.171-9.101 18.591-6.37 5.07-17.03 7.931-34.451 7.931-9.75 0-17.031-0.65-21.451-1.3v-86.064zm19.631 33.541h6.5c10.4 0 15.991-4.29 15.991-10.79 0-6.631-5.07-10.141-14.041-10.141-4.29 0-6.76 0.26-8.45 0.521v20.41zm0 38.871c1.95 0.261 4.29 0.261 7.67 0.261 8.971 0 16.901-3.38 16.901-12.61 0-8.841-7.931-12.351-17.812-12.351h-6.76v24.7z"/></g></svg>
